<svg width="394" height="245" viewBox="0 0 394 245" fill="none" xmlns="http://www.w3.org/2000/svg">
<rect width="393.832" height="245" rx="45" fill="#FDA403"/>
<g clip-path="url(#clip0_3_65)">
<path d="M307.357 35.596H33.5058C33.8926 33.4147 34.648 31.3511 35.7038 29.4821C39.0758 23.5084 45.5058 19.4626 52.8732 19.4626H287.989C295.352 19.4626 301.787 23.5084 305.154 29.4821C306.21 31.3511 306.97 33.4147 307.357 35.596Z" fill="#F2F2F2"/>
<path d="M360.631 224.784C360.631 225.083 360.39 225.323 360.089 225.323H247.557C247.257 225.323 247.016 225.083 247.016 224.784C247.016 224.639 247.07 224.512 247.161 224.417H287.99C288.859 224.417 289.71 224.359 290.547 224.245H360.089C360.39 224.245 360.631 224.485 360.631 224.784Z" fill="#3F3D56"/>
<path d="M234.437 115.014H106.422C105.233 115.014 104.265 113.796 104.265 112.298C104.265 110.801 105.233 109.583 106.422 109.583H234.437C235.627 109.583 236.595 110.801 236.595 112.298C236.595 113.796 235.627 115.014 234.437 115.014Z" fill="#E6E6E6"/>
<path d="M307.357 35.596C306.97 33.4147 306.21 31.3511 305.154 29.482C301.787 23.5084 295.352 19.4626 287.989 19.4626H52.8732C45.5058 19.4626 39.0758 23.5084 35.7038 29.482C34.648 31.3511 33.8926 33.4147 33.5058 35.596C33.3056 36.7092 33.2009 37.8542 33.2009 39.0263V205.759C33.2009 216.548 42.0246 225.323 52.8732 225.323H287.989C290.237 225.323 292.404 224.942 294.419 224.245C302.119 221.594 307.662 214.307 307.662 205.759V39.0263C307.662 37.8587 307.557 36.7092 307.357 35.596ZM306.752 205.759C306.752 215.199 299.698 223.005 290.547 224.245C289.71 224.359 288.859 224.417 287.989 224.417H80.8185C55.0211 224.417 34.111 203.618 34.111 177.963V39.0263C34.111 37.8542 34.2203 36.7092 34.4296 35.596C34.8392 33.3966 35.6355 31.3375 36.7504 29.482C40.0223 24.0243 46.02 20.3677 52.8732 20.3677H287.989C294.843 20.3677 300.84 24.0243 304.112 29.482C305.227 31.3375 306.024 33.3966 306.433 35.596C306.642 36.7092 306.752 37.8542 306.752 39.0263V205.759Z" fill="#3F3D56"/>
<path d="M295.282 117.249L293.742 111.634L300.672 109.082L301.442 114.186L295.282 117.249Z" fill="#FFB6B6"/>
<path opacity="0.1" d="M295.282 117.249L293.742 111.634L297.823 109.922L296.555 116.542L295.282 117.249Z" fill="black"/>
<path d="M274.997 165.372C273.674 164.589 273.604 162.278 274.841 160.209C275.383 159.304 276.085 158.595 276.815 158.15L277.542 156.969L286.735 140.58C286.735 140.58 290.759 125.122 292.397 123.253C294.036 121.384 296.404 121.825 296.404 121.825L298.506 123.681L291.007 145.574L281.753 158.534L280.512 160.338C280.467 161.188 280.176 162.14 279.634 163.045C278.397 165.113 276.321 166.155 274.997 165.372Z" fill="#FFB6B6"/>
<path d="M294.903 115.645C294.903 115.645 297.827 115.533 299.672 117.792C301.517 120.051 291.852 145.51 291.852 145.51L283.98 145.233L294.903 115.645Z" fill="#6C63FF"/>
<path d="M295.667 112.527C299.636 112.527 302.853 109.328 302.853 105.381C302.853 101.434 299.636 98.2345 295.667 98.2345C291.699 98.2345 288.481 101.434 288.481 105.381C288.481 109.328 291.699 112.527 295.667 112.527Z" fill="#FFB6B6"/>
<path d="M278.857 209.132L273.981 221.128L271.158 218.32L270.131 212.96L274.237 207.856L278.857 209.132Z" fill="#FFB6B6"/>
<path d="M324.54 204.793L329.416 210.408L327.107 215.002L321.974 214.237L319.407 207.09L324.54 204.793Z" fill="#FFB6B6"/>
<path d="M292.074 137.795L291.433 148.132L307.345 145.324L306.318 138.944L292.074 137.795Z" fill="#FFB6B6"/>
<path d="M291.304 148.26L307.345 143.027C307.345 143.027 313.248 154.768 306.831 162.17C300.415 169.571 279.114 211.684 279.114 211.684L272.697 208.622L281.937 181.822L292.203 157.065L291.304 148.26Z" fill="#2F2E41"/>
<path d="M306.831 157.831L312.991 184.63L325.823 205.304L319.15 209.132L301.185 184.63L295.282 165.743L306.831 157.831Z" fill="#2F2E41"/>
<path d="M267.821 211.94H263.376C263.376 211.94 258.19 209.898 256.974 211.94C255.759 213.981 262.398 219.772 262.398 219.772C262.398 219.772 271.671 224.956 272.954 224.701C274.237 224.446 274.751 221.383 274.751 221.383L276.29 217.81L273.981 218.576C273.981 218.576 270.901 216.789 271.671 213.726L267.821 211.94Z" fill="#2F2E41"/>
<path d="M328.39 211.174V208.622L331.374 211.174C331.374 211.174 336.346 212.96 332.496 216.789C328.646 220.617 323.77 224.701 323.77 224.701C323.77 224.701 316.071 226.743 315.557 224.446C315.044 222.149 315.557 221.219 315.557 221.219L318.381 219.852L320.947 213.216L325.053 213.726L328.39 211.174Z" fill="#2F2E41"/>
<path d="M297.849 106.785L295.539 106.529L291.304 102.318C291.304 102.318 287.455 104.36 287.455 102.829C287.455 95.6822 291.818 95.9374 295.411 95.427C299.004 94.9165 298.619 94.7889 299.774 96.7031C300.302 97.5786 302.212 98.1069 302.212 98.1069C302.212 98.1069 305.805 93.2575 307.601 99.1278C309.398 104.998 307.088 123.119 308.885 124.651C310.681 126.182 301.508 127.711 302.502 121.715C303.495 115.718 305.292 106.529 304.265 104.488C303.238 102.446 302.982 102.956 302.982 102.956C304.254 102.44 305.085 111.539 300.288 111.984L300.159 107.55C300.159 107.55 299.389 105.253 297.849 106.785Z" fill="#2F2E41"/>
<path d="M294.641 115.59L302.34 112.527L312.606 143.155L291.484 142.39L289.582 133.249C289.582 133.249 287.725 128.491 289.265 125.683C290.805 122.876 294.641 115.59 294.641 115.59Z" fill="#6C63FF"/>
<path d="M314.676 166.895C313.141 167.026 311.73 165.189 311.522 162.791C311.432 161.741 311.587 160.758 311.919 159.973L311.817 158.593L309.679 139.947C309.679 139.947 305.698 124.694 305.933 122.226C306.169 119.758 306.541 119.102 306.541 119.102L309.336 119.392L316.077 141.528L316.156 157.423L316.205 159.607C316.667 160.324 316.989 161.266 317.079 162.316C317.286 164.714 316.21 166.764 314.676 166.895Z" fill="#FFB6B6"/>
<path d="M301.699 114.952C301.699 114.952 304.008 113.165 306.831 113.931C309.655 114.697 316.726 140.986 316.726 140.986L310.168 145.324L301.699 114.952Z" fill="#6C63FF"/>
<path d="M167.992 159.137H137.205C135.326 159.137 133.797 157.617 133.797 155.748V152.686C133.797 150.818 135.326 149.298 137.205 149.298H167.992C169.871 149.298 171.4 150.818 171.4 152.686V155.748C171.4 157.617 169.871 159.137 167.992 159.137Z" fill="#6C63FF"/>
<path d="M286.308 59.0657H255.521C253.642 59.0657 252.113 57.5454 252.113 55.6768V52.6146C252.113 50.7461 253.642 49.2263 255.521 49.2263H286.308C288.187 49.2263 289.716 50.7461 289.716 52.6146V55.6768C289.716 57.5454 288.187 59.0657 286.308 59.0657Z" fill="#6C63FF"/>
<path d="M213.666 159.364H182.878C180.874 159.364 179.243 157.742 179.243 155.748V152.686C179.243 150.693 180.874 149.072 182.878 149.072H213.666C215.67 149.072 217.301 150.693 217.301 152.686V155.748C217.301 157.742 215.67 159.364 213.666 159.364ZM182.878 149.977C181.376 149.977 180.153 151.192 180.153 152.686V155.748C180.153 157.243 181.376 158.458 182.878 158.458H213.666C215.168 158.458 216.391 157.243 216.391 155.748V152.686C216.391 151.192 215.168 149.977 213.666 149.977H182.878Z" fill="#6C63FF"/>
<path d="M251.431 100.985H89.4289C87.9233 100.985 86.6985 99.7668 86.6985 98.2695C86.6985 96.7722 87.9233 95.5542 89.4289 95.5542H251.431C252.936 95.5542 254.161 96.7722 254.161 98.2695C254.161 99.7668 252.936 100.985 251.431 100.985Z" fill="#E6E6E6"/>
<path d="M79.112 56.8612H58.6343C57.1287 56.8612 55.9039 55.6433 55.9039 54.146C55.9039 52.6487 57.1287 51.4307 58.6343 51.4307H79.112C80.6176 51.4307 81.8424 52.6487 81.8424 54.146C81.8424 55.6433 80.6176 56.8612 79.112 56.8612Z" fill="#E6E6E6"/>
<path d="M201.523 56.8612H181.046C179.54 56.8612 178.315 55.6433 178.315 54.146C178.315 52.6487 179.54 51.4307 181.046 51.4307H201.523C203.029 51.4307 204.254 52.6487 204.254 54.146C204.254 55.6433 203.029 56.8612 201.523 56.8612Z" fill="#E6E6E6"/>
<path d="M240.204 56.8612H219.726C218.22 56.8612 216.995 55.6433 216.995 54.146C216.995 52.6487 218.22 51.4307 219.726 51.4307H240.204C241.709 51.4307 242.934 52.6487 242.934 54.146C242.934 55.6433 241.709 56.8612 240.204 56.8612Z" fill="#E6E6E6"/>
<path d="M215.481 129.043H125.379C123.873 129.043 122.648 127.825 122.648 126.327C122.648 124.83 123.873 123.612 125.379 123.612H215.481C216.986 123.612 218.211 124.83 218.211 126.327C218.211 127.825 216.986 129.043 215.481 129.043Z" fill="#E6E6E6"/>
<path d="M219.407 188.442H121.452C120.542 188.442 119.802 187.706 119.802 186.801C119.802 185.895 120.542 185.159 121.452 185.159H219.407C220.317 185.159 221.058 185.895 221.058 186.801C221.058 187.706 220.317 188.442 219.407 188.442Z" fill="#E6E6E6"/>
<path d="M220.319 29.1453H122.364C121.454 29.1453 120.713 28.4088 120.713 27.5035C120.713 26.5981 121.454 25.8617 122.364 25.8617H220.319C221.229 25.8617 221.97 26.5981 221.97 27.5035C221.97 28.4088 221.229 29.1453 220.319 29.1453Z" fill="white"/>
</g>
<defs>
<clipPath id="clip0_3_65">
<rect width="327.43" height="206.075" fill="white" transform="translate(33.2009 19.4626)"/>
</clipPath>
</defs>
</svg>
