<svg xmlns="http://www.w3.org/2000/svg" xmlns:xlink="http://www.w3.org/1999/xlink" width="500" zoomAndPan="magnify" viewBox="0 0 375 374.999991" height="500" preserveAspectRatio="xMidYMid meet" version="1.0"><defs><clipPath id="027bf2e825"><path d="M 18.75 149 L 130 149 L 130 259 L 18.75 259 Z M 18.75 149 " clip-rule="nonzero"/></clipPath><clipPath id="d1b51960bf"><path d="M 26.390625 262 L 136 262 L 136 374.980469 L 26.390625 374.980469 Z M 26.390625 262 " clip-rule="nonzero"/></clipPath><clipPath id="fa1111a757"><path d="M 0 0 L 156.75 0 L 156.75 155.992188 L 0 155.992188 Z M 0 0 " clip-rule="nonzero"/></clipPath><clipPath id="029e5e5730"><path d="M 243.75 265.476562 L 337.5 265.476562 L 337.5 359.226562 L 243.75 359.226562 Z M 243.75 265.476562 " clip-rule="nonzero"/></clipPath></defs><path fill="#824ad4" d="M 324.535156 7.585938 C 314.753906 10.980469 305.40625 14.730469 296.46875 18.828125 C 294.339844 19.8125 292.246094 20.796875 290.160156 21.792969 L 343.855469 67.777344 C 344.535156 65.566406 345.195312 63.328125 345.820312 61.09375 C 348.507812 51.605469 350.773438 41.820312 352.601562 31.609375 C 354.351562 21.355469 355.800781 10.835938 356 -0.753906 C 344.589844 1.242188 334.398438 4.277344 324.535156 7.585938 " fill-opacity="1" fill-rule="nonzero"/><path fill="#824ad4" d="M 290.65625 116.410156 C 281.101562 127.554688 264.335938 128.847656 253.195312 119.3125 C 242.058594 109.769531 240.746094 93.007812 250.28125 81.859375 C 259.839844 70.714844 276.621094 69.414062 287.753906 78.960938 C 298.894531 88.5 300.203125 105.265625 290.65625 116.410156 Z M 246.691406 46.765625 C 215.921875 67.472656 189.421875 91.820312 166.117188 118.914062 C 142.84375 146.03125 122.839844 175.9375 107.101562 209.503906 C 105.152344 213.710938 103.253906 217.960938 101.425781 222.285156 C 99.652344 226.632812 97.832031 230.980469 96.203125 235.449219 C 95.101562 238.414062 94.035156 241.429688 92.988281 244.460938 L 154.21875 296.886719 C 157.054688 295.386719 159.867188 293.863281 162.632812 292.324219 C 166.808594 290.019531 170.796875 287.539062 174.84375 285.140625 C 178.816406 282.683594 182.738281 280.132812 186.605469 277.5625 C 217.332031 256.839844 243.796875 232.460938 267.019531 205.289062 C 290.183594 178.089844 310.164062 148.144531 325.875 114.589844 C 331.519531 102.496094 336.574219 89.929688 340.96875 76.78125 L 281.707031 26.027344 C 269.394531 32.398438 257.75 39.34375 246.691406 46.765625 " fill-opacity="1" fill-rule="nonzero"/><g clip-path="url(#027bf2e825)"><path fill="#824ad4" d="M 91.773438 221.292969 L 92.851562 218.664062 C 94.636719 214.441406 96.558594 210.152344 98.660156 205.597656 C 107.367188 187.046875 117.65625 169.003906 129.429688 151.605469 L 89.167969 149.539062 L 18.996094 258.046875 L 88.539062 229.464844 C 89.609375 226.691406 90.695312 223.96875 91.773438 221.292969 " fill-opacity="1" fill-rule="nonzero"/></g><path fill="#824ad4" d="M 191.789062 285.253906 C 187.566406 288.074219 183.644531 290.628906 179.75 293.039062 L 177.304688 294.507812 C 174.84375 295.984375 172.304688 297.5 169.710938 298.980469 L 152.183594 372.082031 L 248.59375 286.042969 L 240.355469 246.570312 C 224.972656 260.902344 208.75 273.832031 191.789062 285.253906 " fill-opacity="1" fill-rule="nonzero"/><g clip-path="url(#d1b51960bf)"><path fill="#824ad4" d="M 100.121094 337.480469 C 103.160156 335.535156 109.28125 328.316406 115.355469 317.289062 C 96.558594 317.289062 76.359375 325.375 65.546875 339.289062 C 70.933594 323.375 64.6875 305.683594 91.246094 291.632812 C 77.8125 289.382812 69.679688 290.59375 60.648438 295.691406 C 65.417969 287.394531 68.484375 269.871094 90.648438 262.464844 C 53.625 266.101562 42.996094 313.539062 30.96875 323.992188 C 46.359375 325.980469 47.453125 310.675781 64.753906 307.632812 C 32.261719 325.484375 40.882812 364.960938 26.695312 374.339844 C 64.992188 380.660156 69.28125 338.394531 91.71875 333.816406 C 71.960938 344.367188 74.15625 361.097656 72.382812 368.460938 C 81.019531 353.957031 127.535156 350.519531 135.8125 304.023438 C 131.160156 317.339844 112.914062 338.054688 100.121094 337.480469 " fill-opacity="1" fill-rule="nonzero"/></g><g clip-path="url(#fa1111a757)"><path fill="#ffde59" d="M 80.289062 41.179688 C 80.410156 42.273438 80.574219 43.359375 80.785156 44.441406 C 80.996094 45.519531 81.253906 46.589844 81.554688 47.644531 C 81.859375 48.703125 82.203125 49.746094 82.59375 50.773438 C 82.984375 51.804688 83.417969 52.8125 83.890625 53.804688 C 84.367188 54.796875 84.882812 55.765625 85.441406 56.714844 C 86 57.664062 86.597656 58.585938 87.230469 59.484375 C 87.867188 60.382812 88.539062 61.25 89.25 62.089844 C 89.957031 62.929688 90.703125 63.742188 91.480469 64.519531 C 92.257812 65.296875 93.066406 66.039062 93.90625 66.75 C 94.746094 67.457031 95.617188 68.128906 96.515625 68.765625 C 97.410156 69.402344 98.335938 70 99.28125 70.554688 C 100.230469 71.113281 101.199219 71.628906 102.191406 72.105469 C 103.183594 72.582031 104.195312 73.015625 105.222656 73.40625 C 106.25 73.792969 107.292969 74.140625 108.351562 74.441406 C 109.410156 74.742188 110.476562 75 111.558594 75.210938 C 112.636719 75.421875 113.722656 75.589844 114.816406 75.707031 C 125.414062 76.867188 139.09375 77.621094 156.757812 77.621094 C 139.097656 77.621094 125.414062 78.371094 114.816406 79.53125 C 113.722656 79.652344 112.636719 79.816406 111.558594 80.027344 C 110.476562 80.238281 109.410156 80.496094 108.351562 80.796875 C 107.292969 81.097656 106.25 81.445312 105.222656 81.835938 C 104.195312 82.226562 103.183594 82.65625 102.191406 83.132812 C 101.199219 83.609375 100.230469 84.125 99.28125 84.683594 C 98.335938 85.238281 97.410156 85.835938 96.515625 86.472656 C 95.617188 87.109375 94.746094 87.78125 93.90625 88.488281 C 93.066406 89.199219 92.257812 89.941406 91.480469 90.71875 C 90.703125 91.5 89.957031 92.308594 89.25 93.148438 C 88.539062 93.988281 87.867188 94.859375 87.230469 95.753906 C 86.597656 96.652344 86 97.574219 85.441406 98.523438 C 84.882812 99.472656 84.367188 100.441406 83.890625 101.433594 C 83.417969 102.425781 82.984375 103.433594 82.59375 104.464844 C 82.203125 105.492188 81.859375 106.535156 81.554688 107.59375 C 81.253906 108.652344 80.996094 109.71875 80.785156 110.796875 C 80.574219 111.878906 80.410156 112.964844 80.289062 114.058594 C 79.128906 124.65625 78.378906 138.335938 78.378906 155.996094 C 78.378906 138.335938 77.628906 124.65625 76.46875 114.058594 C 76.347656 112.964844 76.183594 111.878906 75.972656 110.796875 C 75.757812 109.71875 75.503906 108.652344 75.203125 107.59375 C 74.898438 106.535156 74.554688 105.492188 74.164062 104.464844 C 73.773438 103.433594 73.339844 102.425781 72.867188 101.433594 C 72.390625 100.441406 71.875 99.472656 71.316406 98.523438 C 70.757812 97.574219 70.160156 96.652344 69.527344 95.753906 C 68.890625 94.859375 68.21875 93.988281 67.507812 93.148438 C 66.800781 92.308594 66.054688 91.5 65.277344 90.71875 C 64.5 89.941406 63.691406 89.199219 62.851562 88.488281 C 62.007812 87.78125 61.140625 87.109375 60.242188 86.472656 C 59.34375 85.835938 58.421875 85.242188 57.472656 84.683594 C 56.527344 84.125 55.554688 83.609375 54.5625 83.132812 C 53.574219 82.65625 52.5625 82.226562 51.535156 81.835938 C 50.503906 81.445312 49.460938 81.097656 48.40625 80.796875 C 47.347656 80.496094 46.277344 80.238281 45.199219 80.027344 C 44.121094 79.816406 43.035156 79.652344 41.941406 79.53125 C 31.339844 78.371094 17.660156 77.621094 0 77.621094 C 17.660156 77.621094 31.339844 76.867188 41.941406 75.707031 C 43.035156 75.589844 44.121094 75.421875 45.199219 75.210938 C 46.277344 75 47.347656 74.742188 48.40625 74.441406 C 49.460938 74.140625 50.503906 73.792969 51.535156 73.40625 C 52.5625 73.015625 53.574219 72.582031 54.5625 72.105469 C 55.554688 71.628906 56.527344 71.113281 57.472656 70.554688 C 58.421875 70 59.34375 69.402344 60.242188 68.765625 C 61.140625 68.128906 62.007812 67.457031 62.851562 66.75 C 63.691406 66.039062 64.5 65.296875 65.277344 64.519531 C 66.054688 63.742188 66.800781 62.929688 67.507812 62.089844 C 68.21875 61.25 68.890625 60.382812 69.527344 59.484375 C 70.160156 58.585938 70.757812 57.664062 71.316406 56.714844 C 71.875 55.765625 72.390625 54.796875 72.863281 53.804688 C 73.339844 52.8125 73.773438 51.804688 74.164062 50.773438 C 74.554688 49.746094 74.898438 48.703125 75.203125 47.644531 C 75.503906 46.589844 75.757812 45.519531 75.972656 44.441406 C 76.183594 43.359375 76.347656 42.273438 76.46875 41.179688 C 77.628906 30.582031 78.378906 16.902344 78.378906 -0.757812 C 78.378906 16.902344 79.128906 30.582031 80.289062 41.179688 Z M 80.289062 41.179688 " fill-opacity="1" fill-rule="nonzero"/></g><g clip-path="url(#029e5e5730)"><path fill="#5271ff" d="M 290.625 265.476562 C 286.054688 304.078125 282.351562 307.78125 243.75 312.351562 C 243.832031 312.359375 243.910156 312.371094 243.988281 312.378906 L 243.992188 312.378906 C 282.367188 316.9375 286.066406 320.703125 290.625 359.226562 C 295.195312 320.625 298.898438 316.921875 337.5 312.351562 C 298.898438 307.78125 295.195312 304.078125 290.625 265.476562 Z M 290.625 265.476562 " fill-opacity="1" fill-rule="nonzero"/></g></svg>