<svg xmlns="http://www.w3.org/2000/svg" xmlns:xlink="http://www.w3.org/1999/xlink" width="100" zoomAndPan="magnify" viewBox="0 0 75 74.999997" height="100" preserveAspectRatio="xMidYMid meet" version="1.0"><defs><clipPath id="19c20a450b"><path d="M 2.609375 0 L 72.359375 0 L 72.359375 74.25 L 2.609375 74.25 Z M 2.609375 0 " clip-rule="nonzero"/></clipPath><clipPath id="5ce8f9f6b1"><path d="M 37 0 L 72.359375 0 L 72.359375 74.25 L 37 74.25 Z M 37 0 " clip-rule="nonzero"/></clipPath></defs><g clip-path="url(#19c20a450b)"><path fill="#e23237" d="M 2.609375 12.445312 L 37.003906 0.222656 L 72.300781 12.257812 L 66.597656 57.679688 L 37.003906 74.027344 L 7.886719 57.890625 Z M 2.609375 12.445312 " fill-opacity="1" fill-rule="nonzero"/></g><g clip-path="url(#5ce8f9f6b1)"><path fill="#b52e31" d="M 72.300781 12.257812 L 37.003906 0.222656 L 37.003906 74.027344 L 66.597656 57.679688 Z M 72.300781 12.257812 " fill-opacity="1" fill-rule="nonzero"/></g><path fill="#ffffff" d="M 37.054688 8.847656 L 15.621094 56.453125 L 23.621094 56.289062 L 27.941406 45.535156 L 47.109375 45.535156 L 51.800781 56.375 L 59.429688 56.535156 Z M 37.109375 24.132812 L 44.359375 39.253906 L 30.785156 39.253906 L 37.128906 24.132812 Z M 37.109375 24.132812 " fill-opacity="1" fill-rule="nonzero"/></svg>