<svg xmlns="http://www.w3.org/2000/svg" xmlns:xlink="http://www.w3.org/1999/xlink" width="500" zoomAndPan="magnify" viewBox="0 0 375 374.999991" height="500" preserveAspectRatio="xMidYMid meet" version="1.0"><path fill="#ffffff" d="M 231.5625 66.5625 C 228.457031 72.125 225.695312 77.855469 223.28125 83.75 C 211.429688 81.875 199.5 80.9375 187.5 80.9375 C 175.5 80.9375 163.570312 81.875 151.71875 83.75 C 149.304688 77.855469 146.542969 72.125 143.4375 66.5625 C 121.003906 70.394531 99.492188 77.167969 78.90625 86.875 C 74.371094 93.421875 70.132812 100.152344 66.191406 107.074219 C 62.25 113.992188 58.621094 121.070312 55.300781 128.3125 C 51.984375 135.550781 48.992188 142.921875 46.328125 150.425781 C 43.660156 157.929688 41.328125 165.535156 39.335938 173.246094 C 37.339844 180.953125 35.6875 188.738281 34.378906 196.59375 C 33.070312 204.445312 32.109375 212.34375 31.496094 220.285156 C 30.882812 228.222656 30.621094 236.175781 30.710938 244.136719 C 30.800781 252.101562 31.242188 260.042969 32.03125 267.96875 C 43.96875 276.945312 56.589844 284.828125 69.894531 291.625 C 83.195312 298.417969 96.980469 304.023438 111.25 308.4375 C 117.757812 299.839844 123.539062 290.777344 128.59375 281.25 C 119.257812 277.808594 110.351562 273.484375 101.875 268.28125 C 104.199219 266.734375 106.386719 265.015625 108.4375 263.125 C 111.507812 264.605469 114.617188 265.996094 117.765625 267.300781 C 120.914062 268.605469 124.097656 269.820312 127.316406 270.945312 C 130.53125 272.074219 133.777344 273.105469 137.054688 274.050781 C 140.328125 274.996094 143.628906 275.847656 146.953125 276.605469 C 150.273438 277.363281 153.617188 278.027344 156.976562 278.597656 C 160.335938 279.171875 163.710938 279.644531 167.097656 280.027344 C 170.484375 280.410156 173.878906 280.695312 177.28125 280.886719 C 180.6875 281.078125 184.089844 281.175781 187.5 281.175781 C 190.910156 281.175781 194.3125 281.078125 197.71875 280.886719 C 201.121094 280.695312 204.515625 280.410156 207.902344 280.027344 C 211.289062 279.644531 214.664062 279.171875 218.023438 278.597656 C 221.382812 278.027344 224.726562 277.363281 228.046875 276.605469 C 231.371094 275.847656 234.671875 274.996094 237.945312 274.050781 C 241.21875 273.105469 244.46875 272.074219 247.683594 270.945312 C 250.902344 269.820312 254.085938 268.605469 257.234375 267.300781 C 260.382812 265.996094 263.492188 264.605469 266.5625 263.125 C 268.75 265 270.9375 266.71875 273.125 268.28125 C 264.605469 273.441406 255.699219 277.816406 246.40625 281.40625 C 251.25 291.152344 256.875 300.421875 263.28125 309.21875 C 277.535156 304.820312 291.296875 299.222656 304.574219 292.425781 C 317.851562 285.632812 330.441406 277.738281 342.34375 268.75 C 343.152344 260.824219 343.609375 252.878906 343.710938 244.914062 C 343.816406 236.949219 343.566406 228.996094 342.964844 221.054688 C 342.359375 213.113281 341.40625 205.210938 340.101562 197.351562 C 338.796875 189.496094 337.148438 181.710938 335.152344 174 C 333.15625 166.285156 330.820312 158.679688 328.148438 151.175781 C 325.476562 143.671875 322.476562 136.300781 319.152344 129.0625 C 315.824219 121.824219 312.183594 114.746094 308.230469 107.832031 C 304.273438 100.917969 300.019531 94.191406 295.46875 87.65625 C 275.117188 77.746094 253.8125 70.714844 231.5625 66.5625 Z M 135.625 231.40625 C 134.660156 231.335938 133.699219 231.222656 132.742188 231.058594 C 131.789062 230.898438 130.84375 230.691406 129.90625 230.441406 C 128.972656 230.1875 128.050781 229.890625 127.144531 229.550781 C 126.238281 229.210938 125.347656 228.828125 124.480469 228.402344 C 123.609375 227.976562 122.761719 227.511719 121.9375 227.003906 C 121.109375 226.496094 120.3125 225.953125 119.539062 225.367188 C 118.765625 224.785156 118.019531 224.167969 117.308594 223.511719 C 116.59375 222.855469 115.914062 222.167969 115.265625 221.449219 C 114.617188 220.730469 114.003906 219.980469 113.429688 219.203125 C 112.851562 218.421875 112.316406 217.617188 111.816406 216.789062 C 111.316406 215.957031 110.859375 215.105469 110.441406 214.230469 C 110.023438 213.359375 109.648438 212.464844 109.316406 211.554688 C 108.984375 210.644531 108.699219 209.722656 108.453125 208.785156 C 108.210938 207.847656 108.011719 206.898438 107.859375 205.945312 C 107.707031 204.988281 107.601562 204.023438 107.542969 203.058594 C 107.480469 202.089844 107.46875 201.125 107.5 200.15625 C 107.460938 199.1875 107.472656 198.21875 107.527344 197.25 C 107.585938 196.28125 107.6875 195.320312 107.835938 194.359375 C 107.984375 193.402344 108.179688 192.453125 108.421875 191.511719 C 108.660156 190.574219 108.945312 189.648438 109.277344 188.734375 C 109.605469 187.824219 109.980469 186.929688 110.394531 186.054688 C 110.8125 185.175781 111.269531 184.324219 111.769531 183.492188 C 112.265625 182.660156 112.804688 181.855469 113.382812 181.074219 C 113.957031 180.292969 114.570312 179.542969 115.21875 178.820312 C 115.867188 178.101562 116.550781 177.414062 117.265625 176.757812 C 117.980469 176.101562 118.726562 175.484375 119.5 174.902344 C 120.273438 174.316406 121.078125 173.773438 121.902344 173.265625 C 122.730469 172.761719 123.582031 172.296875 124.453125 171.871094 C 125.328125 171.449219 126.21875 171.066406 127.125 170.730469 C 128.035156 170.390625 128.957031 170.097656 129.894531 169.847656 C 130.832031 169.601562 131.78125 169.398438 132.738281 169.238281 C 133.695312 169.082031 134.65625 168.972656 135.625 168.90625 C 136.59375 168.972656 137.554688 169.082031 138.511719 169.238281 C 139.46875 169.398438 140.417969 169.601562 141.355469 169.847656 C 142.292969 170.097656 143.214844 170.390625 144.125 170.730469 C 145.03125 171.066406 145.921875 171.449219 146.796875 171.871094 C 147.667969 172.296875 148.519531 172.761719 149.347656 173.265625 C 150.171875 173.773438 150.976562 174.316406 151.75 174.902344 C 152.523438 175.484375 153.269531 176.101562 153.984375 176.757812 C 154.699219 177.414062 155.382812 178.101562 156.03125 178.820312 C 156.679688 179.542969 157.292969 180.292969 157.867188 181.074219 C 158.445312 181.855469 158.984375 182.660156 159.480469 183.492188 C 159.980469 184.324219 160.4375 185.175781 160.855469 186.054688 C 161.269531 186.929688 161.644531 187.824219 161.972656 188.734375 C 162.304688 189.648438 162.589844 190.574219 162.828125 191.511719 C 163.070312 192.453125 163.265625 193.402344 163.414062 194.359375 C 163.5625 195.320312 163.664062 196.28125 163.722656 197.25 C 163.777344 198.21875 163.789062 199.1875 163.75 200.15625 C 163.789062 201.125 163.777344 202.09375 163.722656 203.0625 C 163.664062 204.03125 163.5625 204.992188 163.414062 205.953125 C 163.265625 206.910156 163.070312 207.859375 162.828125 208.800781 C 162.589844 209.738281 162.304688 210.664062 161.972656 211.578125 C 161.644531 212.488281 161.269531 213.382812 160.855469 214.257812 C 160.4375 215.136719 159.980469 215.988281 159.480469 216.820312 C 158.984375 217.652344 158.445312 218.457031 157.867188 219.238281 C 157.292969 220.019531 156.679688 220.769531 156.03125 221.492188 C 155.382812 222.210938 154.699219 222.898438 153.984375 223.554688 C 153.269531 224.210938 152.523438 224.828125 151.75 225.410156 C 150.976562 225.996094 150.171875 226.539062 149.347656 227.046875 C 148.519531 227.550781 147.667969 228.015625 146.796875 228.441406 C 145.921875 228.863281 145.03125 229.246094 144.125 229.582031 C 143.214844 229.921875 142.292969 230.214844 141.355469 230.464844 C 140.417969 230.710938 139.46875 230.914062 138.511719 231.074219 C 137.554688 231.230469 136.59375 231.339844 135.625 231.40625 Z M 239.375 231.40625 C 238.410156 231.335938 237.449219 231.222656 236.492188 231.058594 C 235.539062 230.898438 234.59375 230.691406 233.65625 230.441406 C 232.722656 230.1875 231.800781 229.890625 230.894531 229.550781 C 229.988281 229.210938 229.097656 228.828125 228.230469 228.402344 C 227.359375 227.976562 226.511719 227.511719 225.6875 227.003906 C 224.859375 226.496094 224.0625 225.953125 223.289062 225.367188 C 222.515625 224.785156 221.769531 224.167969 221.058594 223.511719 C 220.34375 222.855469 219.664062 222.167969 219.015625 221.449219 C 218.367188 220.730469 217.753906 219.980469 217.179688 219.203125 C 216.601562 218.421875 216.066406 217.617188 215.566406 216.789062 C 215.066406 215.957031 214.609375 215.105469 214.191406 214.230469 C 213.773438 213.359375 213.398438 212.464844 213.066406 211.554688 C 212.734375 210.644531 212.449219 209.722656 212.203125 208.785156 C 211.960938 207.847656 211.761719 206.898438 211.609375 205.945312 C 211.457031 204.988281 211.351562 204.023438 211.292969 203.058594 C 211.230469 202.089844 211.21875 201.125 211.25 200.15625 C 211.210938 199.1875 211.222656 198.21875 211.277344 197.25 C 211.335938 196.28125 211.4375 195.320312 211.585938 194.359375 C 211.734375 193.402344 211.929688 192.453125 212.171875 191.511719 C 212.410156 190.574219 212.695312 189.648438 213.027344 188.734375 C 213.355469 187.824219 213.730469 186.929688 214.144531 186.054688 C 214.5625 185.175781 215.019531 184.324219 215.519531 183.492188 C 216.015625 182.660156 216.554688 181.855469 217.132812 181.074219 C 217.707031 180.292969 218.320312 179.542969 218.96875 178.820312 C 219.617188 178.101562 220.300781 177.414062 221.015625 176.757812 C 221.730469 176.101562 222.476562 175.484375 223.25 174.902344 C 224.023438 174.316406 224.828125 173.773438 225.652344 173.265625 C 226.480469 172.761719 227.332031 172.296875 228.203125 171.871094 C 229.078125 171.449219 229.96875 171.066406 230.875 170.730469 C 231.785156 170.390625 232.707031 170.097656 233.644531 169.847656 C 234.582031 169.601562 235.53125 169.398438 236.488281 169.238281 C 237.445312 169.082031 238.40625 168.972656 239.375 168.90625 C 240.34375 168.964844 241.308594 169.074219 242.269531 169.226562 C 243.226562 169.378906 244.175781 169.578125 245.117188 169.824219 C 246.054688 170.070312 246.980469 170.359375 247.890625 170.695312 C 248.804688 171.03125 249.695312 171.410156 250.570312 171.832031 C 251.445312 172.253906 252.296875 172.71875 253.128906 173.222656 C 253.957031 173.730469 254.761719 174.273438 255.539062 174.855469 C 256.3125 175.4375 257.0625 176.058594 257.777344 176.714844 C 258.496094 177.371094 259.175781 178.058594 259.828125 178.78125 C 260.476562 179.503906 261.089844 180.253906 261.667969 181.035156 C 262.242188 181.816406 262.78125 182.625 263.28125 183.457031 C 263.777344 184.292969 264.234375 185.148438 264.648438 186.027344 C 265.066406 186.902344 265.4375 187.800781 265.765625 188.714844 C 266.09375 189.628906 266.375 190.554688 266.613281 191.496094 C 266.851562 192.441406 267.042969 193.390625 267.1875 194.351562 C 267.335938 195.3125 267.433594 196.277344 267.484375 197.246094 C 267.539062 198.214844 267.542969 199.1875 267.5 200.15625 C 267.542969 201.125 267.539062 202.097656 267.484375 203.066406 C 267.433594 204.035156 267.335938 205 267.1875 205.960938 C 267.042969 206.921875 266.851562 207.871094 266.613281 208.816406 C 266.375 209.757812 266.09375 210.683594 265.765625 211.597656 C 265.4375 212.511719 265.066406 213.410156 264.648438 214.285156 C 264.234375 215.164062 263.777344 216.019531 263.28125 216.855469 C 262.78125 217.6875 262.242188 218.496094 261.667969 219.277344 C 261.089844 220.058594 260.476562 220.808594 259.828125 221.53125 C 259.175781 222.253906 258.496094 222.941406 257.777344 223.597656 C 257.0625 224.253906 256.3125 224.875 255.539062 225.457031 C 254.761719 226.039062 253.957031 226.582031 253.128906 227.089844 C 252.296875 227.59375 251.445312 228.058594 250.570312 228.480469 C 249.695312 228.902344 248.804688 229.28125 247.890625 229.617188 C 246.980469 229.953125 246.054688 230.242188 245.117188 230.488281 C 244.175781 230.734375 243.226562 230.933594 242.269531 231.085938 C 241.308594 231.238281 240.34375 231.347656 239.375 231.40625 Z M 239.375 231.40625 " fill-opacity="1" fill-rule="nonzero"/></svg>