<svg xmlns="http://www.w3.org/2000/svg" xmlns:xlink="http://www.w3.org/1999/xlink" width="100" zoomAndPan="magnify" viewBox="0 0 75 74.999997" height="100" preserveAspectRatio="xMidYMid meet" version="1.0"><path fill="#2151bd" d="M 33.5625 40.28125 L 33.5625 39.9375 C 33.75 39.46875 33.9375 39.03125 34.15625 38.59375 C 35.019531 36.765625 35.523438 34.84375 35.664062 32.828125 C 35.804688 30.808594 35.574219 28.835938 34.96875 26.90625 C 34.902344 26.339844 34.683594 25.847656 34.304688 25.421875 C 33.925781 25 33.460938 24.722656 32.90625 24.59375 C 31.742188 24.511719 30.605469 24.636719 29.484375 24.964844 C 28.367188 25.292969 27.339844 25.804688 26.40625 26.5 L 26.40625 27.0625 C 26.613281 29.578125 26.550781 32.089844 26.21875 34.59375 C 26.039062 35.730469 26.121094 36.847656 26.460938 37.945312 C 26.800781 39.042969 27.367188 40.007812 28.15625 40.84375 C 28.738281 41.460938 29.414062 41.941406 30.191406 42.28125 C 30.964844 42.625 31.777344 42.800781 32.625 42.8125 C 32.890625 41.953125 33.203125 41.109375 33.5625 40.28125 Z M 31.25 26.8125 C 31.070312 26.605469 30.976562 26.367188 30.96875 26.09375 C 31.007812 25.929688 31.101562 25.804688 31.25 25.71875 C 31.726562 25.472656 32.226562 25.398438 32.75 25.5 C 33.53125 25.5 34.3125 26 34.25 26.5625 C 34.128906 26.878906 33.929688 27.132812 33.648438 27.324219 C 33.367188 27.511719 33.058594 27.601562 32.71875 27.59375 L 32.53125 27.59375 C 31.996094 27.507812 31.570312 27.25 31.25 26.8125 Z M 31.25 26.8125 " fill-opacity="1" fill-rule="nonzero"/><path fill="#2151bd" d="M 24.625 34.375 C 24.90625 31.984375 24.96875 29.589844 24.8125 27.1875 L 24.8125 26.3125 C 24.75 23.734375 25.132812 21.222656 25.960938 18.777344 C 26.789062 16.332031 28.007812 14.105469 29.625 12.09375 C 26.5 11.09375 19 8.96875 14.40625 12.40625 C 11.59375 14.40625 10.28125 18.15625 10.5625 23.5 C 11.1875 28.179688 12.226562 32.761719 13.6875 37.25 C 15.8125 44.1875 18.21875 48.5625 20.28125 49.28125 C 20.59375 49.28125 21.5625 49.6875 22.96875 48 C 24.96875 45.625 26.8125 43.59375 27.65625 42.6875 L 27.0625 42.09375 C 26.070312 41.070312 25.359375 39.882812 24.929688 38.523438 C 24.5 37.164062 24.398438 35.78125 24.625 34.375 Z M 35.5625 45 C 35.0625 44.8125 34.8125 44.6875 34.25 45.34375 C 33.914062 45.679688 33.613281 46.046875 33.34375 46.4375 C 32.25 47.78125 31.78125 48.25 28.625 48.90625 C 28.195312 48.976562 27.78125 49.09375 27.375 49.25 C 27.726562 49.496094 28.113281 49.664062 28.53125 49.75 C 29.230469 49.988281 29.949219 50.109375 30.6875 50.113281 C 31.425781 50.121094 32.144531 50.011719 32.847656 49.785156 C 33.550781 49.558594 34.203125 49.230469 34.800781 48.796875 C 35.398438 48.363281 35.910156 47.847656 36.34375 47.25 C 36.515625 46.886719 36.515625 46.519531 36.34375 46.15625 C 36.242188 45.664062 35.980469 45.277344 35.5625 45 Z M 55.21875 26.8125 C 55.363281 25.996094 55.449219 25.171875 55.46875 24.34375 C 53.40625 24.09375 51.03125 24.125 50.09375 25.46875 C 48.28125 28.0625 51.84375 34.46875 53.21875 37.1875 C 53.519531 37.671875 53.792969 38.171875 54.03125 38.6875 C 54.15625 39.027344 54.3125 39.347656 54.5 39.65625 C 55.332031 37.488281 55.5 35.269531 55 33 C 54.851562 31.910156 54.777344 30.816406 54.78125 29.71875 C 54.851562 28.738281 54.996094 27.769531 55.21875 26.8125 Z M 53.46875 26.3125 C 53.191406 26.59375 52.859375 26.773438 52.46875 26.84375 L 52.28125 26.84375 C 51.976562 26.84375 51.699219 26.761719 51.449219 26.589844 C 51.195312 26.417969 51.015625 26.191406 50.90625 25.90625 C 50.90625 25.46875 51.53125 25.15625 52.28125 25.03125 C 53.03125 24.90625 53.78125 25.03125 53.84375 25.5 C 53.828125 25.820312 53.703125 26.09375 53.46875 26.3125 Z M 53.46875 26.3125 " fill-opacity="1" fill-rule="nonzero"/><path fill="#2151bd" d="M 53.125 15.25 C 55.214844 17.574219 56.640625 20.25 57.40625 23.28125 C 57.421875 23.4375 57.421875 23.59375 57.40625 23.75 C 57.417969 24.863281 57.324219 25.96875 57.125 27.0625 C 56.976562 27.953125 56.882812 28.847656 56.84375 29.75 C 56.835938 30.796875 56.910156 31.839844 57.0625 32.875 C 57.378906 34.308594 57.4375 35.753906 57.246094 37.207031 C 57.050781 38.664062 56.617188 40.042969 55.9375 41.34375 L 56.15625 41.59375 C 63.09375 30.6875 65.53125 18.03125 63.3125 15.25 C 62.601562 14.355469 61.800781 13.554688 60.90625 12.847656 C 60.011719 12.136719 59.046875 11.539062 58.015625 11.050781 C 56.980469 10.5625 55.90625 10.199219 54.792969 9.957031 C 53.675781 9.71875 52.546875 9.605469 51.40625 9.625 C 49.691406 9.601562 47.992188 9.769531 46.3125 10.125 C 48.96875 11.320312 51.242188 13.027344 53.125 15.25 Z M 53.125 15.25 " fill-opacity="1" fill-rule="nonzero"/><path fill="#2151bd" d="M 67.65625 43.75 C 67.4375 43.125 66.5 41.09375 63.0625 41.8125 C 62.03125 42.03125 60.988281 42.167969 59.9375 42.21875 C 62.773438 37.425781 64.917969 32.34375 66.375 26.96875 C 67.53125 22.4375 68.4375 16.375 66.03125 13.28125 C 65.148438 12.160156 64.148438 11.15625 63.03125 10.265625 C 61.914062 9.378906 60.710938 8.628906 59.421875 8.019531 C 58.128906 7.40625 56.785156 6.953125 55.390625 6.65625 C 53.996094 6.355469 52.582031 6.222656 51.15625 6.25 C 48.539062 6.234375 45.976562 6.597656 43.46875 7.34375 C 41.96875 7.082031 40.460938 6.933594 38.9375 6.90625 C 36.199219 6.851562 33.636719 7.496094 31.25 8.84375 C 29.441406 8.246094 27.597656 7.789062 25.71875 7.46875 C 24.605469 7.183594 23.472656 7.015625 22.324219 6.960938 C 21.175781 6.90625 20.035156 6.96875 18.898438 7.144531 C 17.761719 7.320312 16.65625 7.613281 15.578125 8.011719 C 14.5 8.414062 13.476562 8.921875 12.5 9.53125 C 8.625 12.25 6.84375 17 7.15625 23.65625 C 7.753906 28.617188 8.796875 33.480469 10.28125 38.25 C 11.164062 41.234375 12.320312 44.109375 13.75 46.875 C 14.257812 48.144531 14.984375 49.273438 15.929688 50.265625 C 16.875 51.253906 17.972656 52.03125 19.21875 52.59375 C 20.140625 52.894531 21.070312 52.941406 22.015625 52.734375 C 22.960938 52.527344 23.789062 52.09375 24.5 51.4375 C 25.355469 52.367188 26.398438 52.984375 27.625 53.28125 C 28.839844 53.617188 30.074219 53.746094 31.332031 53.671875 C 32.589844 53.597656 33.800781 53.320312 34.96875 52.84375 L 34.96875 55.375 C 34.941406 57.878906 35.265625 60.335938 35.9375 62.75 C 35.945312 62.886719 35.945312 63.019531 35.9375 63.15625 C 36.359375 64.628906 37.101562 65.921875 38.15625 67.03125 C 38.785156 67.621094 39.503906 68.066406 40.308594 68.371094 C 41.117188 68.671875 41.949219 68.808594 42.8125 68.78125 C 43.550781 68.785156 44.28125 68.699219 45 68.53125 C 46.371094 68.363281 47.65625 67.9375 48.855469 67.246094 C 50.054688 66.558594 51.070312 65.664062 51.90625 64.5625 C 52.964844 62.65625 53.734375 60.640625 54.21875 58.515625 C 54.703125 56.390625 54.878906 54.238281 54.75 52.0625 L 54.75 51.25 L 55.28125 51.25 C 57.878906 51.429688 60.378906 51.011719 62.78125 50 C 64.1875 49.28125 68.75 46.875 67.65625 43.75 Z M 62 48.34375 C 60.195312 49.070312 58.320312 49.425781 56.375 49.40625 C 55.535156 49.429688 54.714844 49.324219 53.90625 49.09375 C 53.59375 52.03125 52.90625 57.5 52.5 59.78125 C 52.46875 60.238281 52.402344 60.6875 52.289062 61.132812 C 52.179688 61.578125 52.03125 62.007812 51.847656 62.425781 C 51.660156 62.84375 51.4375 63.242188 51.179688 63.617188 C 50.921875 63.996094 50.636719 64.351562 50.316406 64.675781 C 49.996094 65.003906 49.648438 65.300781 49.277344 65.566406 C 48.902344 65.832031 48.511719 66.0625 48.097656 66.257812 C 47.683594 66.453125 47.257812 66.609375 46.816406 66.730469 C 46.375 66.847656 45.925781 66.929688 45.46875 66.96875 C 44.789062 67.113281 44.101562 67.1875 43.40625 67.1875 C 42.726562 67.171875 42.066406 67.046875 41.425781 66.816406 C 40.785156 66.585938 40.199219 66.257812 39.667969 65.835938 C 39.132812 65.410156 38.683594 64.914062 38.3125 64.34375 C 37.941406 63.773438 37.671875 63.160156 37.5 62.5 C 36.691406 58.304688 36.398438 54.078125 36.625 49.8125 C 35.863281 50.5 35.003906 51.023438 34.042969 51.378906 C 33.082031 51.734375 32.085938 51.902344 31.0625 51.875 C 30.066406 51.859375 29.085938 51.722656 28.125 51.46875 C 27.84375 51.46875 25.40625 50.75 25.4375 49.1875 C 25.46875 47.625 27.5 47.34375 28.25 47.1875 C 30.9375 46.625 31.125 46.40625 31.96875 45.34375 C 32.152344 45.082031 32.351562 44.832031 32.5625 44.59375 C 31.335938 44.546875 30.179688 44.234375 29.09375 43.65625 C 28.375 44.4375 26.40625 46.5625 24.28125 49.09375 C 23.890625 49.675781 23.390625 50.140625 22.777344 50.488281 C 22.167969 50.832031 21.511719 51.023438 20.8125 51.0625 C 20.449219 51.113281 20.082031 51.113281 19.71875 51.0625 C 16.96875 50 14.375 45.46875 12 37.5 C 10.523438 32.878906 9.480469 28.160156 8.875 23.34375 C 8.5625 17.34375 10.125 13.09375 13.46875 10.84375 C 19.46875 6.59375 29.09375 9.875 31.28125 10.65625 C 32.394531 9.917969 33.59375 9.375 34.882812 9.023438 C 36.167969 8.667969 37.480469 8.527344 38.8125 8.59375 C 40.292969 8.59375 41.753906 8.78125 43.1875 9.15625 C 45.71875 8.292969 48.324219 7.878906 51 7.90625 C 52.289062 7.871094 53.566406 7.984375 54.832031 8.242188 C 56.09375 8.503906 57.3125 8.90625 58.484375 9.445312 C 59.65625 9.988281 60.75 10.65625 61.765625 11.453125 C 62.78125 12.25 63.691406 13.148438 64.5 14.15625 C 66.65625 16.90625 65.21875 23.53125 64.5 26.3125 C 62.886719 32.347656 60.375 37.984375 56.96875 43.21875 C 57.46875 43.5625 59 44.1875 63.21875 43.21875 C 64.65625 42.90625 65.5 43.21875 65.78125 44 C 66.46875 45.71875 63.59375 47.53125 62 48.28125 Z M 62 48.34375 " fill-opacity="1" fill-rule="nonzero"/><path fill="#2151bd" d="M 54.46875 42.46875 C 53.667969 41.523438 53.023438 40.480469 52.53125 39.34375 C 52.53125 39.125 52.15625 38.59375 51.8125 38 C 50 34.875 46.21875 27.9375 48.6875 24.4375 C 49.101562 23.996094 49.570312 23.617188 50.085938 23.300781 C 50.605469 22.984375 51.15625 22.742188 51.738281 22.574219 C 52.320312 22.40625 52.914062 22.320312 53.523438 22.3125 C 54.128906 22.304688 54.726562 22.378906 55.3125 22.53125 C 54.503906 20.296875 53.324219 18.277344 51.78125 16.46875 C 51 15.507812 50.125 14.640625 49.152344 13.871094 C 48.183594 13.101562 47.140625 12.449219 46.023438 11.90625 C 44.910156 11.367188 43.746094 10.957031 42.542969 10.671875 C 41.335938 10.386719 40.113281 10.234375 38.875 10.21875 C 37.394531 10.125 35.964844 10.335938 34.574219 10.855469 C 33.1875 11.371094 31.964844 12.148438 30.90625 13.1875 C 29.574219 14.753906 28.539062 16.496094 27.800781 18.414062 C 27.0625 20.332031 26.660156 22.320312 26.59375 24.375 L 27.0625 24.125 C 28.375 23.417969 29.769531 22.980469 31.25 22.8125 C 31.554688 22.742188 31.859375 22.703125 32.171875 22.695312 C 32.484375 22.691406 32.792969 22.714844 33.097656 22.773438 C 33.40625 22.828125 33.703125 22.914062 33.992188 23.035156 C 34.277344 23.152344 34.550781 23.296875 34.808594 23.472656 C 35.070312 23.648438 35.304688 23.847656 35.523438 24.070312 C 35.738281 24.292969 35.933594 24.535156 36.097656 24.800781 C 36.265625 25.0625 36.402344 25.339844 36.515625 25.632812 C 36.625 25.921875 36.703125 26.222656 36.75 26.53125 C 37.390625 28.644531 37.636719 30.800781 37.480469 33.003906 C 37.324219 35.207031 36.777344 37.3125 35.84375 39.3125 C 35.640625 39.707031 35.464844 40.113281 35.3125 40.53125 L 35.3125 40.875 C 35 41.71875 34.71875 42.5 34.53125 43.15625 C 35.148438 43.039062 35.742188 43.113281 36.3125 43.375 C 36.789062 43.601562 37.195312 43.917969 37.535156 44.320312 C 37.871094 44.722656 38.109375 45.179688 38.25 45.6875 L 38.25 46.1875 C 38.265625 46.28125 38.265625 46.375 38.25 46.46875 C 37.914062 51.597656 38.140625 56.703125 38.9375 61.78125 C 39.007812 62.113281 39.113281 62.429688 39.253906 62.738281 C 39.390625 63.046875 39.5625 63.335938 39.765625 63.609375 C 39.964844 63.878906 40.195312 64.125 40.449219 64.347656 C 40.707031 64.566406 40.980469 64.761719 41.277344 64.921875 C 41.574219 65.082031 41.886719 65.210938 42.210938 65.304688 C 42.535156 65.402344 42.867188 65.460938 43.203125 65.480469 C 43.542969 65.503906 43.878906 65.492188 44.210938 65.441406 C 44.546875 65.390625 44.871094 65.308594 45.1875 65.1875 C 45.554688 65.164062 45.917969 65.105469 46.277344 65.011719 C 46.636719 64.921875 46.980469 64.796875 47.316406 64.640625 C 47.652344 64.484375 47.96875 64.296875 48.269531 64.082031 C 48.570312 63.867188 48.851562 63.628906 49.105469 63.363281 C 49.363281 63.09375 49.59375 62.808594 49.796875 62.5 C 50 62.191406 50.171875 61.863281 50.316406 61.523438 C 50.457031 61.183594 50.570312 60.832031 50.648438 60.472656 C 50.726562 60.109375 50.769531 59.746094 50.78125 59.375 C 51.25 56.625 52.1875 48.90625 52.3125 47.25 C 52.3125 43.9375 53.9375 43.28125 54.9375 43 Z M 54.46875 42.46875 " fill-opacity="1" fill-rule="nonzero"/><path fill="#2151bd" d="M 56.25 44.78125 L 56 44.59375 L 55.625 44.59375 C 54.8125 44.8125 54.0625 45.03125 54.15625 47.09375 C 55.09375 47.464844 56.0625 47.589844 57.0625 47.46875 C 58.550781 47.40625 59.988281 47.105469 61.375 46.5625 C 62.285156 46.152344 63.105469 45.609375 63.84375 44.9375 C 62.609375 45.371094 61.339844 45.574219 60.03125 45.546875 C 58.726562 45.519531 57.464844 45.265625 56.25 44.78125 Z M 56.25 44.78125 " fill-opacity="1" fill-rule="nonzero"/></svg>