<svg xmlns="http://www.w3.org/2000/svg" xmlns:xlink="http://www.w3.org/1999/xlink" width="500" zoomAndPan="magnify" viewBox="0 0 375 374.999991" height="500" preserveAspectRatio="xMidYMid meet" version="1.0"><path fill="#00bf63" d="M 287.546875 88.015625 C 284.304688 84.753906 280.914062 81.660156 277.367188 78.734375 C 273.820312 75.808594 270.136719 73.0625 266.316406 70.503906 C 262.5 67.941406 258.5625 65.574219 254.511719 63.402344 C 250.457031 61.230469 246.308594 59.261719 242.058594 57.503906 C 237.8125 55.742188 233.488281 54.195312 229.089844 52.859375 C 224.6875 51.527344 220.230469 50.414062 215.722656 49.523438 C 211.210938 48.628906 206.667969 47.964844 202.089844 47.519531 C 197.511719 47.078125 192.925781 46.863281 188.328125 46.875 C 111.015625 46.875 48.078125 109.796875 48.046875 187.140625 C 48.046875 211.859375 54.5 235.984375 66.765625 257.265625 L 46.875 329.9375 L 121.234375 310.421875 C 126.355469 313.210938 131.632812 315.667969 137.0625 317.800781 C 142.488281 319.929688 148.03125 321.714844 153.679688 323.15625 C 159.332031 324.597656 165.050781 325.679688 170.839844 326.40625 C 176.625 327.132812 182.433594 327.496094 188.265625 327.5 L 188.328125 327.5 C 265.625 327.5 328.5625 264.578125 328.59375 187.234375 C 328.605469 182.636719 328.394531 178.050781 327.953125 173.476562 C 327.511719 168.902344 326.847656 164.359375 325.960938 159.851562 C 325.070312 155.339844 323.960938 150.886719 322.632812 146.488281 C 321.300781 142.085938 319.757812 137.765625 318 133.515625 C 316.246094 129.269531 314.28125 125.121094 312.113281 121.066406 C 309.945312 117.011719 307.585938 113.078125 305.027344 109.257812 C 302.472656 105.4375 299.734375 101.753906 296.8125 98.203125 C 293.890625 94.65625 290.804688 91.257812 287.546875 88.015625 M 188.328125 303.828125 L 188.28125 303.828125 C 183.085938 303.828125 177.910156 303.484375 172.757812 302.789062 C 167.609375 302.097656 162.527344 301.0625 157.515625 299.691406 C 152.503906 298.316406 147.605469 296.613281 142.820312 294.582031 C 138.035156 292.554688 133.40625 290.214844 128.9375 287.5625 L 124.6875 285.03125 L 80.5625 296.609375 L 92.328125 253.59375 L 89.5625 249.1875 C 86.65625 244.5625 84.09375 239.757812 81.863281 234.773438 C 79.636719 229.789062 77.769531 224.671875 76.261719 219.425781 C 74.753906 214.175781 73.617188 208.847656 72.859375 203.441406 C 72.101562 198.035156 71.726562 192.601562 71.734375 187.140625 C 71.765625 122.859375 124.0625 70.5625 188.375 70.5625 C 192.195312 70.554688 196.003906 70.734375 199.808594 71.101562 C 203.609375 71.472656 207.382812 72.027344 211.132812 72.769531 C 214.878906 73.511719 218.578125 74.433594 222.234375 75.542969 C 225.890625 76.652344 229.480469 77.9375 233.011719 79.402344 C 236.539062 80.863281 239.984375 82.5 243.351562 84.304688 C 246.71875 86.105469 249.988281 88.074219 253.160156 90.203125 C 256.332031 92.328125 259.390625 94.609375 262.339844 97.039062 C 265.285156 99.46875 268.105469 102.039062 270.796875 104.75 C 273.503906 107.445312 276.070312 110.269531 278.5 113.222656 C 280.925781 116.171875 283.203125 119.234375 285.328125 122.410156 C 287.453125 125.585938 289.414062 128.859375 291.214844 132.226562 C 293.015625 135.597656 294.648438 139.046875 296.109375 142.578125 C 297.566406 146.109375 298.851562 149.703125 299.953125 153.359375 C 301.058594 157.019531 301.980469 160.722656 302.71875 164.46875 C 303.457031 168.21875 304.011719 171.996094 304.375 175.796875 C 304.742188 179.601562 304.917969 183.414062 304.90625 187.234375 C 304.875 251.515625 252.578125 303.828125 188.328125 303.828125 M 252.28125 216.5 C 248.765625 214.734375 231.546875 206.265625 228.328125 205.09375 C 225.125 203.921875 222.796875 203.34375 220.453125 206.84375 C 218.109375 210.34375 211.390625 218.234375 209.34375 220.578125 C 207.296875 222.921875 205.25 223.203125 201.75 221.453125 C 198.25 219.703125 186.953125 216 173.5625 204.0625 C 163.140625 194.765625 156.109375 183.296875 154.0625 179.78125 C 152.015625 176.265625 153.84375 174.375 155.609375 172.625 C 157.1875 171.0625 159.109375 168.53125 160.859375 166.484375 C 162.609375 164.4375 163.1875 162.984375 164.359375 160.640625 C 165.53125 158.296875 164.953125 156.25 164.0625 154.5 C 163.1875 152.734375 156.171875 135.484375 153.25 128.46875 C 150.421875 121.671875 147.53125 122.578125 145.375 122.484375 C 143.140625 122.394531 140.90625 122.351562 138.671875 122.359375 C 136.875 122.40625 135.164062 122.808594 133.535156 123.570312 C 131.90625 124.332031 130.5 125.386719 129.3125 126.734375 C 126.09375 130.25 117.046875 138.71875 117.046875 155.96875 C 117.046875 173.21875 129.609375 189.890625 131.359375 192.234375 C 133.109375 194.578125 156.078125 229.96875 191.234375 245.15625 C 199.609375 248.765625 206.140625 250.921875 211.21875 252.546875 C 219.609375 255.21875 227.25 254.828125 233.296875 253.9375 C 240.03125 252.9375 254.03125 245.46875 256.953125 237.28125 C 259.875 229.09375 259.875 222.078125 259 220.609375 C 258.125 219.140625 255.765625 218.25 252.28125 216.5 " fill-opacity="1" fill-rule="evenodd"/></svg>