<svg xmlns="http://www.w3.org/2000/svg" xmlns:xlink="http://www.w3.org/1999/xlink" width="500" zoomAndPan="magnify" viewBox="0 0 375 374.999991" height="500" preserveAspectRatio="xMidYMid meet" version="1.0"><path fill="#ffffff" d="M 339.734375 192.671875 L 199.109375 36.421875 C 193.1875 29.828125 181.8125 29.828125 175.890625 36.421875 L 35.265625 192.671875 C 34.761719 193.230469 34.300781 193.820312 33.882812 194.445312 C 33.464844 195.070312 33.09375 195.722656 32.769531 196.398438 C 32.449219 197.078125 32.175781 197.777344 31.953125 198.492188 C 31.730469 199.210938 31.558594 199.941406 31.441406 200.683594 C 31.324219 201.425781 31.261719 202.171875 31.25 202.925781 C 31.242188 203.675781 31.285156 204.425781 31.386719 205.167969 C 31.484375 205.914062 31.636719 206.648438 31.839844 207.371094 C 32.046875 208.09375 32.300781 208.796875 32.609375 209.484375 C 35.109375 215.125 40.703125 218.75 46.875 218.75 L 78.125 218.75 L 78.125 328.125 C 78.125 329.152344 78.226562 330.167969 78.425781 331.171875 C 78.625 332.179688 78.921875 333.15625 79.3125 334.105469 C 79.707031 335.050781 80.1875 335.953125 80.757812 336.804688 C 81.328125 337.660156 81.976562 338.449219 82.703125 339.171875 C 83.425781 339.898438 84.214844 340.546875 85.070312 341.117188 C 85.921875 341.6875 86.824219 342.167969 87.769531 342.5625 C 88.71875 342.953125 89.695312 343.25 90.703125 343.449219 C 91.707031 343.648438 92.722656 343.75 93.75 343.75 L 140.625 343.75 C 141.652344 343.75 142.667969 343.648438 143.671875 343.449219 C 144.679688 343.25 145.65625 342.953125 146.605469 342.5625 C 147.550781 342.167969 148.453125 341.6875 149.304688 341.117188 C 150.160156 340.546875 150.949219 339.898438 151.671875 339.171875 C 152.398438 338.449219 153.046875 337.660156 153.617188 336.804688 C 154.1875 335.953125 154.667969 335.050781 155.0625 334.105469 C 155.453125 333.15625 155.75 332.179688 155.949219 331.171875 C 156.148438 330.167969 156.25 329.152344 156.25 328.125 L 156.25 265.625 L 218.75 265.625 L 218.75 328.125 C 218.75 329.152344 218.851562 330.167969 219.050781 331.171875 C 219.25 332.179688 219.546875 333.15625 219.9375 334.105469 C 220.332031 335.050781 220.8125 335.953125 221.382812 336.804688 C 221.953125 337.660156 222.601562 338.449219 223.328125 339.171875 C 224.050781 339.898438 224.839844 340.546875 225.695312 341.117188 C 226.546875 341.6875 227.449219 342.167969 228.394531 342.5625 C 229.34375 342.953125 230.320312 343.25 231.328125 343.449219 C 232.332031 343.648438 233.347656 343.75 234.375 343.75 L 281.25 343.75 C 282.277344 343.75 283.292969 343.648438 284.296875 343.449219 C 285.304688 343.25 286.28125 342.953125 287.230469 342.5625 C 288.175781 342.167969 289.078125 341.6875 289.929688 341.117188 C 290.785156 340.546875 291.574219 339.898438 292.296875 339.171875 C 293.023438 338.449219 293.671875 337.660156 294.242188 336.804688 C 294.8125 335.953125 295.292969 335.050781 295.6875 334.105469 C 296.078125 333.15625 296.375 332.179688 296.574219 331.171875 C 296.773438 330.167969 296.875 329.152344 296.875 328.125 L 296.875 218.75 L 328.125 218.75 C 328.878906 218.753906 329.625 218.703125 330.371094 218.597656 C 331.117188 218.492188 331.851562 218.332031 332.574219 218.121094 C 333.296875 217.910156 334 217.648438 334.683594 217.335938 C 335.367188 217.023438 336.023438 216.660156 336.65625 216.253906 C 337.289062 215.84375 337.886719 215.390625 338.453125 214.898438 C 339.019531 214.402344 339.550781 213.867188 340.039062 213.296875 C 340.527344 212.722656 340.972656 212.121094 341.375 211.484375 C 341.777344 210.847656 342.132812 210.1875 342.4375 209.5 C 342.742188 208.8125 343 208.105469 343.203125 207.378906 C 343.40625 206.65625 343.558594 205.921875 343.652344 205.175781 C 343.75 204.429688 343.792969 203.679688 343.785156 202.925781 C 343.773438 202.175781 343.707031 201.425781 343.585938 200.683594 C 343.46875 199.941406 343.296875 199.210938 343.070312 198.492188 C 342.847656 197.773438 342.570312 197.074219 342.242188 196.398438 C 341.917969 195.71875 341.542969 195.066406 341.125 194.445312 C 340.703125 193.820312 340.242188 193.230469 339.734375 192.671875 Z M 339.734375 192.671875 " fill-opacity="1" fill-rule="nonzero"/></svg>